<svg width="18" height="24" viewBox="0 0 18 24" fill="none" xmlns="http://www.w3.org/2000/svg">
<path fill-rule="evenodd" clip-rule="evenodd" d="M3.89192 10.3633L3.52391 7.05117C3.47673 6.62652 3.47673 6.19796 3.52391 5.77332L3.55047 5.53427C3.8322 2.99865 5.82558 0.992388 8.35938 0.694293C8.78498 0.64422 9.21501 0.64422 9.64061 0.694293C12.1744 0.992388 14.1677 2.99866 14.4495 5.53428L14.476 5.77332C14.5232 6.19796 14.5232 6.62652 14.476 7.05116L14.108 10.3633L14.909 10.4272C16.1722 10.5281 17.2036 11.4777 17.4085 12.7282C17.8355 15.3364 17.8355 17.9968 17.4085 20.6051C17.2036 21.8556 16.1722 22.8052 14.909 22.906L13.1636 23.0454C10.3923 23.2666 7.60781 23.2666 4.83649 23.0454L3.09101 22.906C1.82782 22.8052 0.796371 21.8556 0.591597 20.6051C0.164516 17.9968 0.164516 15.3364 0.591597 12.7282C0.796371 11.4777 1.82782 10.5281 3.09101 10.4272L3.89192 10.3633ZM8.56378 2.43231C8.85358 2.39822 9.14641 2.39822 9.4361 2.43231C11.1612 2.63525 12.5183 4.0012 12.7102 5.72753L12.7367 5.96658C12.7696 6.26277 12.7696 6.5617 12.7367 6.85791L12.3621 10.2301C10.123 10.0859 7.87696 10.0859 5.6379 10.2301L5.26321 6.85791C5.2303 6.5617 5.2303 6.26277 5.26321 5.96658L5.28976 5.72753C5.48159 4.0012 6.83875 2.63525 8.56378 2.43231ZM13.0243 12.0323C10.3457 11.8186 7.65436 11.8186 4.97575 12.0323L3.23027 12.1717C2.76952 12.2085 2.39329 12.5548 2.3186 13.011C1.92218 15.432 1.92218 17.9013 2.3186 20.3223C2.39329 20.7784 2.76952 21.1248 3.23027 21.1616L4.97575 21.3009C7.65436 21.5147 10.3457 21.5147 13.0243 21.3009L14.7697 21.1616C15.2306 21.1248 15.6067 20.7784 15.6815 20.3223C16.0779 17.9013 16.0779 15.432 15.6815 13.011C15.6067 12.5548 15.2306 12.2085 14.7697 12.1717L13.0243 12.0323Z" fill="#8972EC"/>
</svg>
