<svg width="22" height="22" viewBox="0 0 22 22" fill="none" xmlns="http://www.w3.org/2000/svg">
<path d="M20.4746 17.8797C19.9588 16.6579 19.2103 15.5481 18.2707 14.6121C17.334 13.6734 16.2244 12.925 15.0031 12.4082C14.9922 12.4027 14.9813 12.4 14.9703 12.3945C16.6738 11.1641 17.7813 9.15977 17.7813 6.89844C17.7813 3.15234 14.7461 0.117188 11 0.117188C7.25391 0.117188 4.21876 3.15234 4.21876 6.89844C4.21876 9.15977 5.32618 11.1641 7.02969 12.3973C7.01876 12.4027 7.00782 12.4055 6.99688 12.4109C5.77188 12.9277 4.67266 13.6688 3.7293 14.6148C2.79062 15.5516 2.04221 16.6612 1.5254 17.8824C1.01769 19.078 0.743864 20.3599 0.718757 21.6586C0.718028 21.6878 0.723146 21.7168 0.733812 21.744C0.744478 21.7712 0.760476 21.7959 0.780862 21.8168C0.801248 21.8377 0.82561 21.8543 0.852512 21.8657C0.879415 21.877 0.908315 21.8828 0.937507 21.8828H2.57813C2.69844 21.8828 2.79415 21.7871 2.79688 21.6695C2.85157 19.5586 3.69923 17.5816 5.19766 16.0832C6.74805 14.5328 8.80704 13.6797 11 13.6797C13.193 13.6797 15.252 14.5328 16.8024 16.0832C18.3008 17.5816 19.1484 19.5586 19.2031 21.6695C19.2059 21.7898 19.3016 21.8828 19.4219 21.8828H21.0625C21.0917 21.8828 21.1206 21.877 21.1475 21.8657C21.1744 21.8543 21.1988 21.8377 21.2192 21.8168C21.2395 21.7959 21.2555 21.7712 21.2662 21.744C21.2769 21.7168 21.282 21.6878 21.2813 21.6586C21.2539 20.3516 20.9832 19.0801 20.4746 17.8797ZM11 11.6016C9.74493 11.6016 8.56368 11.1121 7.67501 10.2234C6.78634 9.33477 6.29688 8.15352 6.29688 6.89844C6.29688 5.64336 6.78634 4.46211 7.67501 3.57344C8.56368 2.68477 9.74493 2.19531 11 2.19531C12.2551 2.19531 13.4363 2.68477 14.325 3.57344C15.2137 4.46211 15.7031 5.64336 15.7031 6.89844C15.7031 8.15352 15.2137 9.33477 14.325 10.2234C13.4363 11.1121 12.2551 11.6016 11 11.6016Z" fill="#8972EC"/>
</svg>
